<?xml version="1.0" encoding="utf-8"?>
<svg width="664px" height="664px" viewBox="0 0 664 664" version="1.1" xmlns:xlink="http://www.w3.org/1999/xlink" xmlns="http://www.w3.org/2000/svg">
  <defs>
    <linearGradient gradientUnits="objectBoundingBox" x1="0.5328158" y1="1.8728462" x2="0.49636838" y2="0.47307694" id="gradient_1">
      <stop offset="0%" stop-color="#2B92F3" />
      <stop offset="100%" stop-color="#1166D2" />
    </linearGradient>
    <linearGradient gradientUnits="objectBoundingBox" x1="0.16173336" y1="-0.15533334" x2="0.49800003" y2="0.56170833" id="gradient_2">
      <stop offset="0%" stop-color="#D7E3EE" />
      <stop offset="39.1%" stop-color="#CCD8E3" />
      <stop offset="100%" stop-color="#B1BBC6" />
    </linearGradient>
    <linearGradient gradientUnits="objectBoundingBox" x1="0.42803335" y1="-0.05550003" x2="0.5533001" y2="0.9115002" id="gradient_3">
      <stop offset="0%" stop-color="#2B92F3" />
      <stop offset="100%" stop-color="#1166D2" />
    </linearGradient>
    <path d="M664 0L664 0L664 664L0 664L0 0L664 0Z" id="path_1" />
    <clipPath id="clip_1">
      <use xlink:href="#path_1" clip-rule="evenodd" fill-rule="evenodd" />
    </clipPath>
  </defs>
  <g id="Finn">
    <path d="M664 0L664 0L664 664L0 664L0 0L664 0Z" id="Finn" fill="none" stroke="none" />
    <path d="M591.652 372.255C584.32 354.687 565.507 345.833 559.282 345.833C557.345 345.833 555.408 346.11 553.333 346.802C551.12 347.355 548.768 348.323 546.417 349.707C544.065 350.952 541.852 352.473 539.5 354.272C536.18 356.9 532.86 359.943 529.817 363.402L529.678 363.54C524.698 369.073 520.133 375.575 517.09 382.215C513.908 388.717 511.972 395.218 511.833 401.167L511.833 525.667L594.833 525.667C594.833 525.667 594.833 420.118 594.833 387.887C594.833 382.077 593.588 376.82 591.652 372.255L591.652 372.255ZM146.91 382.215C143.867 375.575 139.302 369.073 134.322 363.54L134.183 363.402C131.14 359.943 127.82 356.9 124.5 354.272C122.148 352.473 119.935 350.952 117.583 349.707C115.232 348.323 112.88 347.355 110.667 346.802C108.592 346.11 106.655 345.833 104.718 345.833C98.4933 345.833 79.68 354.687 72.3483 372.255C70.4117 376.82 69.1667 382.077 69.1667 387.887C69.1667 420.118 69.1667 525.667 69.1667 525.667L152.167 525.667L152.167 401.167C152.028 395.218 150.092 388.717 146.91 382.215L146.91 382.215Z" id="Shape" fill="url(#gradient_1)" fill-rule="evenodd" stroke="none" clip-path="url(#clip_1)" />
    <path d="M124.5 291.33C122.148 290.777 119.797 290.638 117.583 290.5L116.615 290.5C114.54 290.5 112.603 290.638 110.667 290.777C87.2883 292.437 69.1667 304.61 69.1667 327.158C69.1667 343.482 70.4117 358.422 72.3483 372.255C73.1783 377.788 74.0083 383.183 75.115 388.44L74.9767 388.44C75.8067 392.867 76.775 397.017 77.8817 401.167L179.833 401.167L179.833 339.47C179.833 321.21 149.538 296.033 124.5 291.33L124.5 291.33ZM594.833 327.158C594.833 304.61 576.712 292.437 553.333 290.777C551.397 290.638 549.46 290.5 547.385 290.5L546.417 290.5C544.203 290.638 541.852 290.777 539.5 291.33C514.462 296.033 484.167 321.21 484.167 339.47L484.167 401.167L586.118 401.167C587.225 397.017 588.193 392.867 589.023 388.44L588.885 388.44C589.992 383.183 590.822 377.788 591.652 372.255C593.588 358.422 594.833 343.482 594.833 327.158L594.833 327.158Z" id="Shape" fill="#A1CD6A" fill-rule="evenodd" stroke="none" clip-path="url(#clip_1)" />
    <path d="M539.5 135.567L539.5 401.167L124.5 401.167L124.5 135.567C124.5 98.355 147.325 69.1667 176.375 69.1667C201.275 69.1667 221.472 90.6083 226.867 119.935C235.167 118.552 243.743 117.445 252.32 116.338C260.205 115.508 268.228 114.678 276.252 114.125C277.635 113.848 279.018 113.848 280.402 113.71C288.563 113.018 296.725 112.603 305.025 112.327C313.74 111.912 322.593 111.773 331.447 111.773C331.585 111.773 331.585 111.773 331.723 111.773C367.552 111.773 403.518 114.54 437.133 120.073C442.39 90.6083 462.725 69.1667 487.625 69.1667C516.675 69.1667 539.5 98.355 539.5 135.567L539.5 135.567Z" id="Path" fill="url(#gradient_2)" stroke="none" clip-path="url(#clip_1)" />
    <path d="M494.68 235.028C481.815 193.943 431.462 162.403 365.753 154.242C354.825 152.858 343.62 152.167 332 152.167C320.38 152.167 309.175 152.858 298.247 154.242C232.538 162.403 182.185 193.943 169.32 235.028C167.107 241.807 166 248.723 166 255.917C166 263.11 167.107 270.027 169.32 276.805C182.185 317.89 232.538 349.43 298.247 357.592C309.175 358.975 320.38 359.667 332 359.667C343.62 359.667 354.825 358.975 365.753 357.592C431.462 349.43 481.815 317.89 494.68 276.805C496.893 270.027 498 263.11 498 255.917C498 248.723 496.893 241.807 494.68 235.028L494.68 235.028ZM69.1667 525.667L69.1667 581C69.1667 596.217 81.6167 608.667 96.8333 608.667L124.5 608.667L124.5 525.667L69.1667 525.667L69.1667 525.667ZM539.5 525.667L539.5 608.667L567.167 608.667C582.383 608.667 594.833 596.217 594.833 581L594.833 525.667L539.5 525.667L539.5 525.667Z" id="Shape" fill="#FABEAC" fill-rule="evenodd" stroke="none" clip-path="url(#clip_1)" />
    <path d="M77.8817 401.167C86.3201 434.09 99.1851 458.16 110.667 474.345C113.018 477.665 115.37 480.708 117.583 483.337C120.073 486.518 122.425 489.147 124.5 491.36C127.958 494.818 130.587 497.17 132.385 498.553C139.163 503.81 145.942 506.992 152.167 508.928C167.66 514.047 179.833 510.865 179.833 510.865C179.833 510.865 179.833 450.69 179.833 437.41L179.833 401.167L77.8817 401.167L77.8817 401.167ZM484.167 401.167L484.167 437.41C484.167 450.69 484.167 510.865 484.167 510.865C484.167 510.865 496.34 514.047 511.833 508.928C518.058 506.992 524.837 503.81 531.615 498.553C533.413 497.17 536.042 494.818 539.5 491.36C541.575 489.147 543.927 486.518 546.417 483.337C548.63 480.708 550.982 477.665 553.333 474.345C564.815 458.16 577.68 434.09 586.118 401.167L484.167 401.167L484.167 401.167Z" id="Shape" fill="#6FA52C" fill-rule="evenodd" stroke="none" clip-path="url(#clip_1)" />
    <path d="M428.833 221.333C421.197 221.333 415 227.531 415 235.167C415 242.803 421.197 249 428.833 249C436.469 249 442.667 242.803 442.667 235.167C442.667 227.531 436.469 221.333 428.833 221.333L428.833 221.333ZM235.167 221.333C227.531 221.333 221.333 227.531 221.333 235.167C221.333 242.803 227.531 249 235.167 249C242.803 249 249 242.803 249 235.167C249 227.531 242.803 221.333 235.167 221.333L235.167 221.333ZM332.014 290.5C307.999 290.5 285.714 284.843 269.321 274.551C262.847 270.497 260.897 261.962 264.95 255.488C269.031 249.014 277.566 247.078 284.026 251.117C295.895 258.559 313.394 262.834 332.014 262.834C350.62 262.834 368.091 258.559 380.002 251.117C386.462 247.064 395.011 249.014 399.064 255.502C403.117 261.976 401.153 270.511 394.679 274.564C378.272 284.843 356.001 290.5 332.014 290.5L332.014 290.5Z" id="Shape" fill="#272727" fill-rule="evenodd" stroke="none" clip-path="url(#clip_1)" />
    <path d="M539.5 359.667L539.5 608.667L124.5 608.667L124.5 359.667L134.183 363.402L134.322 363.54L145.803 367.967C156.178 371.978 167.66 375.713 179.833 378.895C185.09 380.417 190.485 381.662 195.88 382.907C196.157 382.907 196.433 383.045 196.572 383.045C208.053 385.673 220.227 388.025 232.677 389.823C238.902 390.792 245.127 391.622 251.628 392.452C254.948 392.867 258.268 393.282 261.727 393.558C266.43 394.112 271.272 394.527 276.113 394.803C279.295 395.218 282.477 395.357 285.658 395.495C292.298 396.048 298.938 396.463 305.717 396.602C314.432 397.017 323.147 397.155 332 397.155C340.853 397.155 349.568 397.017 358.283 396.602C365.062 396.463 371.702 396.048 378.342 395.495C381.523 395.357 384.705 395.218 387.887 394.803C392.728 394.527 397.57 394.112 402.273 393.558C405.732 393.282 409.052 392.867 412.372 392.452C418.873 391.622 425.098 390.792 431.323 389.823C443.773 388.025 455.947 385.673 467.428 383.045C467.567 383.045 467.843 382.907 468.12 382.907C473.515 381.662 478.91 380.417 484.167 378.895C496.34 375.713 507.822 371.978 518.197 367.967L529.678 363.54L529.817 363.402L539.5 359.667L539.5 359.667Z" id="Path" fill="url(#gradient_3)" stroke="none" clip-path="url(#clip_1)" />
    <path d="M332 159.083C419.717 159.083 491.083 202.52 491.083 255.917C491.083 309.313 419.717 352.75 332 352.75C244.283 352.75 172.917 309.313 172.917 255.917C172.917 202.52 244.283 159.083 332 159.083M332 152.167C240.327 152.167 166 198.619 166 255.917C166 313.214 240.326 359.667 332 359.667C423.674 359.667 498 313.214 498 255.917C498 198.619 423.674 152.167 332 152.167L332 152.167L332 152.167Z" id="Shape" fill="#151515" fill-opacity="0.05" fill-rule="evenodd" stroke="none" clip-path="url(#clip_1)" />
    <path d="M332 166C414.488 166 484.167 207.182 484.167 255.917C484.167 304.651 414.488 345.833 332 345.833C249.512 345.833 179.833 304.652 179.833 255.917C179.833 207.182 249.512 166 332 166M332 152.167C240.327 152.167 166 198.619 166 255.917C166 313.214 240.326 359.667 332 359.667C423.674 359.667 498 313.214 498 255.917C498 198.619 423.674 152.167 332 152.167L332 152.167L332 152.167Z" id="Shape" fill="#151515" fill-opacity="0.05" fill-rule="evenodd" stroke="none" clip-path="url(#clip_1)" />
    <path d="M539.5 291.33L539.5 608.667L546.417 608.667L546.417 290.5C544.203 290.638 541.852 290.777 539.5 291.33L539.5 291.33ZM117.583 608.667L124.5 608.667L124.5 291.33C122.148 290.777 119.797 290.638 117.583 290.5L117.583 608.667L117.583 608.667Z" id="Shape" fill="#151515" fill-opacity="0.05" fill-rule="evenodd" stroke="none" clip-path="url(#clip_1)" />
    <path d="M547.385 290.5L546.417 290.5C544.203 290.638 541.852 290.777 539.5 291.33L539.5 608.667L553.333 608.667L553.333 290.777C551.397 290.638 549.46 290.5 547.385 290.5L547.385 290.5ZM116.615 290.5C114.54 290.5 112.603 290.638 110.667 290.777L110.667 608.667L124.5 608.667L124.5 291.33C122.148 290.777 119.797 290.638 117.583 290.5L116.615 290.5L116.615 290.5Z" id="Shape" fill="#151515" fill-opacity="0.05" fill-rule="evenodd" stroke="none" clip-path="url(#clip_1)" />
    <path d="M518.197 367.967C470.472 386.503 402.55 397.155 332 397.155C261.45 397.155 193.528 386.503 145.803 367.967L124.5 359.667L124.5 374.468L140.823 380.832C162.542 389.27 188.41 396.187 216.63 401.167C252.182 407.53 291.745 410.988 332 410.988C372.255 410.988 411.818 407.53 447.37 401.167C475.59 396.187 501.458 389.27 523.177 380.832L539.5 374.468L539.5 359.667L518.197 367.967L518.197 367.967Z" id="Path" fill="#151515" fill-opacity="0.05" stroke="none" clip-path="url(#clip_1)" />
    <path d="M518.197 367.967C470.472 386.503 402.55 397.155 332 397.155C261.45 397.155 193.528 386.503 145.803 367.967L124.5 359.667L124.5 367.137L143.313 374.468C177.343 387.61 221.472 396.878 269.335 401.167C289.67 403.103 310.697 404.072 332 404.072C353.303 404.072 374.33 403.103 394.665 401.167C442.528 396.878 486.657 387.61 520.687 374.468L539.5 367.137L539.5 359.667L518.197 367.967L518.197 367.967Z" id="Path" fill="#151515" fill-opacity="0.05" stroke="none" clip-path="url(#clip_1)" />
  </g>
</svg>