<?xml version="1.0" encoding="utf-8"?>
<svg width="664px" height="664px" viewBox="0 0 664 664" version="1.1" xmlns:xlink="http://www.w3.org/1999/xlink" xmlns="http://www.w3.org/2000/svg">
  <defs>
    <path d="M664 0L664 0L664 664L0 664L0 0L664 0Z" id="path_1" />
    <clipPath id="clip_1">
      <use xlink:href="#path_1" clip-rule="evenodd" fill-rule="evenodd" />
    </clipPath>
  </defs>
  <g id="Group">
    <g id="Jake">
      <path d="M664 0L664 0L664 664L0 664L0 0L664 0Z" id="Jake" fill="none" stroke="none" />
      <path d="M579.108 376.561C586.657 362.245 590.96 345.977 590.96 328.68C590.96 284.717 563.338 247.287 524.56 232.553C524.56 232.5 524.56 232.447 524.56 232.4C524.56 155.389 462.131 92.96 385.12 92.96C320.148 92.96 265.733 137.441 250.242 197.593C240.441 194.373 229.99 192.56 219.12 192.56C168.052 192.56 126.007 231.026 120.244 280.567C85.6958 287.857 59.76 318.514 59.76 355.24C59.76 397.417 93.9427 431.6 136.12 431.6C137.289 431.6 138.457 431.52 139.619 431.447C139.593 432.609 139.44 433.751 139.44 434.92C139.44 510.085 200.395 571.04 275.56 571.04C318.302 571.04 356.409 551.299 381.362 520.49C395.83 535.244 415.936 544.48 438.24 544.48C469.103 544.48 495.849 526.897 509.049 501.187C516.054 503.418 523.471 504.64 531.2 504.64C571.531 504.64 604.24 471.931 604.24 431.6C604.24 409.602 594.486 389.947 579.108 376.561L579.108 376.561Z" id="Path" fill="#C7EDE6" stroke="none" clip-path="url(#clip_1)" />
      <path d="M215.169 531.2L149.4 531.2C147.567 531.2 146.08 529.713 146.08 527.88C146.08 526.047 147.567 524.56 149.4 524.56L215.169 524.56C217.002 524.56 218.489 526.047 218.489 527.88C218.489 529.713 217.008 531.2 215.169 531.2L215.169 531.2Z" id="Path" fill="#FFFFFF" stroke="none" clip-path="url(#clip_1)" />
      <path d="M235.72 531.2L229.08 531.2C227.247 531.2 225.76 529.713 225.76 527.88C225.76 526.047 227.247 524.56 229.08 524.56L235.72 524.56C237.553 524.56 239.04 526.047 239.04 527.88C239.04 529.713 237.559 531.2 235.72 531.2L235.72 531.2Z" id="Path" fill="#FFFFFF" stroke="none" clip-path="url(#clip_1)" />
      <path d="M268.86 544.48L209.16 544.48C207.327 544.48 205.84 542.993 205.84 541.16C205.84 539.327 207.327 537.84 209.16 537.84L268.86 537.84C270.693 537.84 272.18 539.327 272.18 541.16C272.18 542.993 270.693 544.48 268.86 544.48L268.86 544.48Z" id="Path" fill="#FFFFFF" stroke="none" clip-path="url(#clip_1)" />
      <path d="M195.88 544.48L189.24 544.48C187.407 544.48 185.92 542.993 185.92 541.16C185.92 539.327 187.407 537.84 189.24 537.84L195.88 537.84C197.713 537.84 199.2 539.327 199.2 541.16C199.2 542.993 197.719 544.48 195.88 544.48L195.88 544.48Z" id="Path" fill="#FFFFFF" stroke="none" clip-path="url(#clip_1)" />
      <path d="M175.96 544.48L162.68 544.48C160.847 544.48 159.36 542.993 159.36 541.16C159.36 539.327 160.847 537.84 162.68 537.84L175.96 537.84C177.793 537.84 179.28 539.327 179.28 541.16C179.28 542.993 177.799 544.48 175.96 544.48L175.96 544.48Z" id="Path" fill="#FFFFFF" stroke="none" clip-path="url(#clip_1)" />
      <path d="M215.8 557.76L202.52 557.76C200.687 557.76 199.2 556.273 199.2 554.44C199.2 552.607 200.687 551.12 202.52 551.12L215.8 551.12C217.633 551.12 219.12 552.607 219.12 554.44C219.12 556.273 217.633 557.76 215.8 557.76L215.8 557.76Z" id="Path" fill="#FFFFFF" stroke="none" clip-path="url(#clip_1)" />
      <path d="M235.72 498C234.545 498 230.255 498 229.08 498C227.247 498 225.76 499.487 225.76 501.32C225.76 503.153 227.247 504.64 229.08 504.64C230.255 504.64 234.545 504.64 235.72 504.64C237.553 504.64 239.04 503.153 239.04 501.32C239.04 499.487 237.553 498 235.72 498L235.72 498Z" id="Path" fill="#FFFFFF" stroke="none" clip-path="url(#clip_1)" />
      <path d="M235.72 511.28C234.545 511.28 203.695 511.28 202.52 511.28C200.687 511.28 199.2 512.767 199.2 514.6C199.2 516.433 200.687 517.92 202.52 517.92C203.695 517.92 234.545 517.92 235.72 517.92C237.553 517.92 239.04 516.433 239.04 514.6C239.04 512.767 237.553 511.28 235.72 511.28L235.72 511.28Z" id="Path" fill="#FFFFFF" stroke="none" clip-path="url(#clip_1)" />
      <path d="M268.92 524.56C267.745 524.56 250.175 524.56 249 524.56C247.167 524.56 245.68 526.047 245.68 527.88C245.68 529.713 247.167 531.2 249 531.2C250.175 531.2 267.745 531.2 268.92 531.2C270.753 531.2 272.24 529.713 272.24 527.88C272.24 526.047 270.753 524.56 268.92 524.56L268.92 524.56Z" id="Path" fill="#FFFFFF" stroke="none" clip-path="url(#clip_1)" />
      <path d="M574.36 312.08L507.96 312.08C506.127 312.08 504.64 310.593 504.64 308.76C504.64 306.927 506.127 305.44 507.96 305.44L574.36 305.44C576.193 305.44 577.68 306.927 577.68 308.76C577.68 310.593 576.193 312.08 574.36 312.08L574.36 312.08Z" id="Path" fill="#FFFFFF" stroke="none" clip-path="url(#clip_1)" />
      <path d="M600.92 312.08L587.64 312.08C585.807 312.08 584.32 310.593 584.32 308.76C584.32 306.927 585.807 305.44 587.64 305.44L600.92 305.44C602.753 305.44 604.24 306.927 604.24 308.76C604.24 310.593 602.753 312.08 600.92 312.08L600.92 312.08Z" id="Path" fill="#FFFFFF" stroke="none" clip-path="url(#clip_1)" />
      <path d="M634.12 325.36L567.72 325.36C565.887 325.36 564.4 323.873 564.4 322.04C564.4 320.207 565.887 318.72 567.72 318.72L634.12 318.72C635.953 318.72 637.44 320.207 637.44 322.04C637.44 323.873 635.959 325.36 634.12 325.36L634.12 325.36Z" id="Path" fill="#FFFFFF" stroke="none" clip-path="url(#clip_1)" />
      <path d="M554.44 325.36L547.8 325.36C545.967 325.36 544.48 323.873 544.48 322.04C544.48 320.207 545.967 318.72 547.8 318.72L554.44 318.72C556.273 318.72 557.76 320.207 557.76 322.04C557.76 323.873 556.273 325.36 554.44 325.36L554.44 325.36Z" id="Path" fill="#FFFFFF" stroke="none" clip-path="url(#clip_1)" />
      <path d="M533.69 325.36L521.24 325.36C519.407 325.36 517.92 323.873 517.92 322.04C517.92 320.207 519.407 318.72 521.24 318.72L533.69 318.72C535.523 318.72 537.01 320.207 537.01 322.04C537.01 323.873 535.523 325.36 533.69 325.36L533.69 325.36Z" id="Path" fill="#FFFFFF" stroke="none" clip-path="url(#clip_1)" />
      <path d="M594.28 298.8L561.08 298.8C559.247 298.8 557.76 297.313 557.76 295.48C557.76 293.647 559.247 292.16 561.08 292.16L594.28 292.16C596.113 292.16 597.6 293.647 597.6 295.48C597.6 297.313 596.119 298.8 594.28 298.8L594.28 298.8Z" id="Path" fill="#FFFFFF" stroke="none" clip-path="url(#clip_1)" />
      <path d="M574.36 338.64L561.08 338.64C559.247 338.64 557.76 337.153 557.76 335.32C557.76 333.487 559.247 332 561.08 332L574.36 332C576.193 332 577.68 333.487 577.68 335.32C577.68 337.153 576.193 338.64 574.36 338.64L574.36 338.64Z" id="Path" fill="#FFFFFF" stroke="none" clip-path="url(#clip_1)" />
      <path d="M237.38 255.64C237.38 255.64 261.55 255.64 278.05 255.64C294.55 255.64 307.93 242.26 307.93 225.76C307.93 210.269 296.098 197.679 281.005 196.179C281.151 194.977 281.37 193.802 281.37 192.56C281.37 176.06 267.99 162.68 251.49 162.68C241.942 162.68 233.542 167.235 228.071 174.207C227.141 156.704 212.785 142.76 195.05 142.76C176.717 142.76 161.85 157.627 161.85 175.96C161.85 178.921 162.361 181.737 163.092 184.472C158.829 179.313 152.468 175.96 145.25 175.96C133.424 175.96 123.776 184.824 122.309 196.245C121.107 196.099 119.932 195.88 118.69 195.88C102.19 195.88 88.81 209.26 88.81 225.76C88.81 242.26 102.19 255.64 118.69 255.64C135.19 255.64 181.77 255.64 181.77 255.64L217.46 255.64L217.46 258.96L237.38 258.96L237.38 255.64L237.38 255.64Z" id="Path" fill="#FDFCEF" stroke="none" clip-path="url(#clip_1)" />
      <path d="M195.05 139.44C174.911 139.44 158.53 155.821 158.53 175.96C158.53 176.066 158.53 176.166 158.53 176.272C154.533 173.922 149.964 172.64 145.25 172.64C133.092 172.64 122.601 181.013 119.633 192.593C119.321 192.573 119.009 192.56 118.69 192.56C100.384 192.56 85.49 207.454 85.49 225.76C85.49 244.066 100.384 258.96 118.69 258.96L217.46 258.96C219.293 258.96 220.78 257.473 220.78 255.64C220.78 253.807 219.293 252.32 217.46 252.32L118.69 252.32C104.042 252.32 92.13 240.408 92.13 225.76C92.13 211.112 104.042 199.2 118.69 199.2C119.467 199.2 120.217 199.313 120.968 199.412L121.904 199.539C122.043 199.559 122.176 199.565 122.315 199.565C123.949 199.565 125.383 198.337 125.602 196.664C126.87 186.75 135.317 179.28 145.25 179.28C151.126 179.28 156.691 181.943 160.529 186.584C161.179 187.368 162.129 187.792 163.092 187.792C163.61 187.792 164.128 187.673 164.606 187.421C165.993 186.71 166.691 185.123 166.292 183.616C165.522 180.721 165.163 178.291 165.163 175.96C165.163 159.486 178.57 146.08 195.043 146.08C210.853 146.08 223.907 158.51 224.751 174.386C224.824 175.767 225.747 176.956 227.068 177.374C227.4 177.481 227.739 177.534 228.077 177.534C229.073 177.534 230.043 177.076 230.68 176.259C235.806 169.738 243.383 166 251.49 166C266.138 166 278.05 177.912 278.05 192.56C278.05 193.337 277.937 194.087 277.838 194.838L277.711 195.774C277.605 196.664 277.857 197.553 278.415 198.25C278.973 198.948 279.79 199.393 280.673 199.479C294.318 200.84 304.603 212.135 304.603 225.76C304.603 240.408 292.691 252.32 278.043 252.32L237.38 252.32C235.547 252.32 234.06 253.807 234.06 255.64C234.06 257.473 235.547 258.96 237.38 258.96L278.05 258.96C296.356 258.96 311.25 244.066 311.25 225.76C311.25 209.844 300.035 196.458 284.67 193.377C284.683 193.104 284.69 192.832 284.69 192.56C284.69 174.254 269.796 159.36 251.49 159.36C243.681 159.36 236.264 162.122 230.355 167.089C226.384 151.126 212.015 139.44 195.05 139.44L195.05 139.44L195.05 139.44Z" id="Path" fill="#472B29" stroke="none" clip-path="url(#clip_1)" />
      <path d="M185.09 185.92C175.774 185.92 167.766 192.553 165.748 201.464C163.311 199.99 160.529 199.2 157.7 199.2C149.719 199.2 143.105 205.156 142.076 212.932C140.728 212.626 139.447 212.48 138.192 212.48C128.039 212.48 119.527 220.448 118.816 230.62C118.756 231.537 119.447 232.334 120.357 232.4C120.396 232.4 120.436 232.4 120.476 232.4C121.339 232.4 122.07 231.729 122.13 230.86C122.72 222.42 129.772 215.8 138.192 215.8C139.712 215.8 141.312 216.079 143.092 216.643C143.238 216.69 143.391 216.71 143.537 216.71C143.902 216.71 144.267 216.577 144.573 216.351C144.998 216.039 145.25 215.495 145.25 214.963C145.25 208.098 150.834 202.513 157.7 202.513C160.668 202.513 163.576 203.629 165.874 205.654C166.186 205.926 166.578 206.072 166.969 206.072C167.182 206.072 167.388 206.033 167.587 205.946C168.171 205.714 168.57 205.169 168.616 204.539C169.293 195.96 176.524 189.233 185.077 189.233C186.458 189.233 187.899 189.459 189.605 189.944C189.758 189.99 189.917 190.01 190.07 190.01C190.794 190.01 191.445 189.525 191.657 188.802C191.909 187.919 191.398 187.002 190.515 186.75C188.523 186.186 186.79 185.92 185.09 185.92L185.09 185.92L185.09 185.92Z" id="Path" fill="#472B29" stroke="none" clip-path="url(#clip_1)" />
      <path d="M277.273 195.88C268.468 195.88 260.62 201.836 258.19 210.368C257.937 211.252 258.449 212.168 259.332 212.42C259.491 212.46 259.644 212.48 259.79 212.48C260.514 212.48 261.178 212.002 261.384 211.271C263.409 204.167 269.943 199.2 277.273 199.2C278.05 199.2 278.8 199.293 279.544 199.393C279.624 199.406 279.697 199.412 279.776 199.412C280.58 199.412 281.297 198.802 281.41 197.972C281.536 197.062 280.899 196.225 279.989 196.106C279.099 195.986 278.196 195.88 277.273 195.88L277.273 195.88L277.273 195.88Z" id="Path" fill="#472B29" stroke="none" clip-path="url(#clip_1)" />
      <path d="M348.959 502.827C287.207 502.821 230.381 459.495 207.546 395.007L206.218 391.262L202.308 391.992C201.524 392.139 200.721 392.212 199.924 392.212C192.427 392.212 184.672 385.897 184.672 375.326C184.672 259.671 249.345 212.639 262.307 204.386C276.715 194.572 292.472 187.839 309.271 184.28C318.149 182.401 327.252 181.445 336.323 181.445C342.139 181.445 348.036 181.836 353.846 182.613L356.17 183.012C431.514 195.488 469.428 241.464 487.96 277.844C490.836 283.475 488.571 292.997 483.485 296.708L480.889 298.601L481.739 301.695C482.682 305.128 483.565 308.601 484.315 312.14C502.741 399.184 454.216 483.452 376.13 499.985C367.192 501.871 358.055 502.827 348.959 502.827C348.965 502.827 348.965 502.827 348.959 502.827L348.959 502.827Z" id="Path" fill="#F1BC19" stroke="none" clip-path="url(#clip_1)" />
      <path d="M336.329 186.086C341.867 186.086 347.478 186.458 353.022 187.188C353.666 187.308 354.47 187.441 355.419 187.6C428.844 199.758 465.776 244.531 483.823 279.956C485.656 283.548 483.983 290.593 480.743 292.957L475.557 296.742L477.257 302.93C478.319 306.808 479.116 310.042 479.766 313.109C497.668 397.636 450.75 479.435 375.173 495.437C366.555 497.263 357.73 498.193 348.965 498.193C289.179 498.193 234.106 456.108 211.936 393.473L209.28 385.977L201.464 387.437C200.966 387.53 200.448 387.577 199.93 387.577C195.528 387.577 189.32 383.779 189.32 375.339C189.32 262.114 252.2 216.344 265.042 208.157C278.827 198.768 294.032 192.268 310.234 188.835C318.8 187.009 327.578 186.086 336.329 186.086M336.329 176.79C327.053 176.79 317.684 177.74 308.308 179.725C290.513 183.496 274.212 190.648 259.81 200.462C244.598 210.143 180.024 258.157 180.024 375.326C180.024 388.599 189.97 396.86 199.93 396.86C201.013 396.86 202.102 396.76 203.171 396.561C226.69 462.994 285.586 507.475 348.965 507.475C358.281 507.475 367.69 506.513 377.099 504.521C457.821 487.423 507.86 400.857 488.863 311.17C488.093 307.538 487.19 303.979 486.221 300.453C493.106 295.434 495.995 283.355 492.104 275.719C448.114 189.399 366.774 180.269 354.463 177.992C348.48 177.202 342.425 176.79 336.329 176.79L336.329 176.79L336.329 176.79Z" id="Shape" fill="#472B29" fill-rule="evenodd" stroke="none" clip-path="url(#clip_1)" />
      <path d="M239.784 308.893C239.784 283.223 260.594 262.413 286.264 262.413C311.934 262.413 332.744 283.223 332.744 308.893C332.744 334.563 311.934 355.373 286.264 355.373C260.594 355.373 239.784 334.563 239.784 308.893Z" id="Oval" fill="#472B29" fill-rule="evenodd" stroke="none" clip-path="url(#clip_1)" />
      <g id="Group" transform="translate(259.7037 315.5328)" clip-path="url(#clip_1)">
        <path d="M0 9.95998C0 4.45923 4.45925 0 9.96001 0C15.4608 0 19.92 4.45923 19.92 9.95998C19.92 15.4607 15.4608 19.92 9.96001 19.92C4.45925 19.92 0 15.4607 0 9.95998Z" id="Oval" fill="#FFFFFF" fill-rule="evenodd" stroke="none" />
      </g>
      <g id="Group" transform="translate(272.9837 275.6928)" clip-path="url(#clip_1)">
        <path d="M0 19.92C0 8.91849 8.91849 0 19.92 0C30.9215 0 39.84 8.91849 39.84 19.92C39.84 30.9215 30.9215 39.84 19.92 39.84C8.91849 39.84 0 30.9215 0 19.92Z" id="Oval" fill="#FFFFFF" fill-rule="evenodd" stroke="none" />
      </g>
      <g id="Group" transform="translate(385.86365 209.29282)" clip-path="url(#clip_1)">
        <path d="M0 43.16C0 19.3234 19.3234 0 43.16 0C66.9966 0 86.32 19.3234 86.32 43.16C86.32 66.9966 66.9966 86.32 43.16 86.32C19.3234 86.32 0 66.9966 0 43.16Z" id="Oval" fill="#472B29" fill-rule="evenodd" stroke="none" />
      </g>
      <g id="Group" transform="translate(405.7837 262.41278)" clip-path="url(#clip_1)">
        <path d="M0 9.96001C0 4.45925 4.45925 0 9.96001 0C15.4608 0 19.92 4.45925 19.92 9.96001C19.92 15.4608 15.4608 19.92 9.96001 19.92C4.45925 19.92 0 15.4608 0 9.96001Z" id="Oval" fill="#FFFFFF" fill-rule="evenodd" stroke="none" />
      </g>
      <g id="Group" transform="translate(419.06366 222.57281)" clip-path="url(#clip_1)">
        <path d="M0 19.92C0 8.91849 8.91849 0 19.92 0C30.9215 0 39.84 8.91849 39.84 19.92C39.84 30.9215 30.9215 39.84 19.92 39.84C8.91849 39.84 0 30.9215 0 19.92Z" id="Oval" fill="#FFFFFF" fill-rule="evenodd" stroke="none" />
      </g>
      <g id="Group" transform="translate(312.4377 274.6692)" clip-path="url(#clip_1)">
        <path d="M13.666 133.857C13.666 133.857 -25.344 57.4968 46.866 14.3368C109.116 -19.6932 152.542 34.456 159.746 54.1768C175.516 97.3368 139.826 113.107 117.416 75.7568C99.986 46.7068 79.5148 39.9008 66.786 47.5368C54.336 55.0068 54.336 88.2068 59.316 109.787C67.616 142.987 35.246 164.567 13.666 133.857L13.666 133.857Z" id="Path" fill="#F1BC19" fill-rule="evenodd" stroke="none" />
        <path d="M37.2645 151.938C28.938 151.938 19.3166 147.668 10.9502 135.763C10.8573 135.636 10.7842 135.504 10.7112 135.364C10.3061 134.574 -28.8566 55.7239 45.1595 11.4816C68.2003 -1.10782 90.7497 -3.34551 112.336 4.77524C138.637 14.6755 157.714 38.9513 162.86 53.0348C171.678 77.1778 164.925 93.0939 154.308 98.1602C143.75 103.2 127.349 98.7711 114.567 77.4633C106.799 64.522 97.9143 55.3189 88.8706 50.8635C81.3807 47.1717 74.1431 46.9924 68.4925 50.3788C58.6985 56.2551 57.2841 86.1949 62.5497 109.037C67.7421 129.813 58.2204 144.746 47.1648 149.799C44.2498 151.134 40.8767 151.938 37.2645 151.938L37.2645 151.938ZM16.5212 132.144C24.7016 143.677 35.1132 148.013 44.4025 143.764C53.0412 139.813 60.385 127.748 56.0956 110.59C50.9961 88.4857 50.425 53.4796 65.0862 44.6883C72.7155 40.1067 82.2174 40.1797 91.8055 44.9074C101.998 49.9272 111.845 60.0067 120.265 74.0437C130.842 91.6729 143.857 95.803 151.453 92.1643C159.348 88.3928 164.022 75.5377 156.625 55.3123C152.92 45.1863 136.652 21.0233 109.999 10.9903C90.3248 3.58667 69.608 5.68492 48.4596 17.2452C-19.0427 57.6031 13.9515 126.998 16.5212 132.144L16.5212 132.144Z" id="Shape" fill="#472B29" fill-rule="evenodd" stroke="none" />
      </g>
      <g id="Group" transform="translate(365.19656 300.61072)" clip-path="url(#clip_1)">
        <path d="M0 20.8144C0 9.31893 11.75 0 26.2445 0C40.7389 0 52.4889 9.31893 52.4889 20.8144C52.4889 32.3099 40.7389 41.6288 26.2445 41.6288C11.75 41.6288 0 32.3099 0 20.8144Z" id="Oval" fill="#472B29" fill-rule="evenodd" stroke="none" />
      </g>
      <path d="M409.104 353.965C409.104 353.965 407.47 368.075 392.504 363.095C377.537 358.115 380.605 373.885 390.844 375.545C401.083 377.205 415.398 376.435 419.09 360.605C422.384 346.495 409.887 348.985 409.104 353.965L409.104 353.965Z" id="Shape" fill="#472B29" fill-rule="evenodd" stroke="none" clip-path="url(#clip_1)" />
      <path d="M395.738 377.366C393.919 377.366 392.172 377.227 390.585 376.968C385.466 376.138 382.072 372.326 380.983 368.913C380.127 366.25 380.592 363.694 382.232 362.08C383.739 360.593 386.827 359.238 393.042 361.303C397.226 362.698 400.619 362.598 403.089 361.024C406.841 358.634 407.465 353.607 407.472 353.554L407.478 353.487C407.817 351.369 409.557 349.516 412.047 348.647C414.617 347.743 417.326 348.182 419.092 349.795C420.719 351.283 422.326 354.397 420.713 360.792C417.559 373.296 405.473 377.366 395.738 377.366L395.738 377.366ZM387.371 363.567C386.116 363.567 385.147 363.86 384.556 364.437C383.513 365.473 383.912 367.2 384.137 367.897C384.914 370.341 387.371 373.083 391.11 373.687C399.988 375.128 414.285 372.652 417.485 359.982C418.428 356.237 418.196 353.487 416.841 352.246C415.805 351.303 414.245 351.389 413.129 351.781C411.854 352.232 410.898 353.109 410.746 353.985C410.666 354.623 409.769 360.699 404.855 363.826C401.495 365.971 397.153 366.177 391.98 364.457C390.207 363.86 388.64 363.567 387.371 363.567L387.371 363.567Z" id="Shape" fill="#472B29" fill-rule="evenodd" stroke="none" clip-path="url(#clip_1)" />
      <path d="M409.104 353.746C409.515 351.117 413.194 349.211 416.089 350.048C416.149 351.462 416.155 353.022 416.042 354.901C415.644 361.488 409.794 361.296 408.008 357.471C408.891 355.459 409.104 353.746 409.104 353.746ZM406.082 363.414C405.624 371.05 397.829 369.602 397.557 363.912C401.773 364.158 404.456 362.498 406.175 360.446C406.169 361.369 406.149 362.332 406.082 363.414ZM392.504 362.876C389.144 361.76 386.7 361.687 385.04 362.272C385.04 362.305 385.04 362.345 385.034 362.378C384.828 368.274 392.464 370.014 393.473 363.142C393.148 363.042 392.842 362.989 392.504 362.876Z" id="Shape" fill="#FFFFFF" fill-rule="evenodd" stroke="none" clip-path="url(#clip_1)" />
      <path d="M233.144 279.006C232.5 279.006 231.862 278.82 231.298 278.442C229.777 277.419 229.372 275.374 230.381 273.854C230.952 272.997 244.883 252.765 291.987 239.306C310.081 233.27 316.442 221.198 316.496 221.079C317.332 219.459 319.318 218.795 320.958 219.625C322.585 220.448 323.248 222.433 322.432 224.067C322.133 224.658 314.935 238.655 293.953 245.654C249.365 258.396 236.025 277.366 235.899 277.559C235.255 278.495 234.206 279.006 233.144 279.006L233.144 279.006Z" id="Shape" fill="#472B29" fill-rule="evenodd" stroke="none" clip-path="url(#clip_1)" />
      <path d="M426.534 210.129C426.115 210.129 425.684 210.05 425.272 209.877C412.961 204.804 397.311 207.274 386.959 208.908L384.708 209.26C373.487 210.986 360.08 208.516 359.523 208.41C357.723 208.071 356.535 206.338 356.873 204.539C357.212 202.739 358.905 201.544 360.744 201.889C360.877 201.909 373.606 204.253 383.699 202.699L385.93 202.354C397.012 200.608 413.771 197.965 427.802 203.742C429.495 204.439 430.305 206.378 429.601 208.078C429.077 209.353 427.842 210.123 426.534 210.129L426.534 210.129Z" id="Shape" fill="#472B29" fill-rule="evenodd" stroke="none" clip-path="url(#clip_1)" />
      <path d="M202.022 394.423C201.644 394.423 201.411 394.409 201.358 394.403C199.532 394.27 198.164 392.676 198.29 390.85C198.43 389.024 200.236 387.65 201.823 387.783C202.141 387.803 207.593 388.035 212.4 383.387C217.566 378.394 220.149 369.317 219.864 357.146C219.824 355.313 221.271 353.792 223.104 353.753C224.996 353.64 226.457 355.16 226.504 356.993C226.836 371.375 223.595 381.906 216.869 388.301C210.933 393.945 204.147 394.423 202.022 394.423L202.022 394.423Z" id="Shape" fill="#472B29" fill-rule="evenodd" stroke="none" clip-path="url(#clip_1)" />
      <path d="M479.654 303.116C478.226 303.116 476.905 302.186 476.473 300.746C474.103 292.844 470.902 286.403 470.869 286.337C470.052 284.697 470.716 282.705 472.356 281.881C474.01 281.065 475.982 281.729 476.812 283.369C476.951 283.648 480.284 290.361 482.828 298.84C483.359 300.593 482.363 302.445 480.603 302.977C480.291 303.07 479.972 303.116 479.654 303.116L479.654 303.116Z" id="Shape" fill="#472B29" fill-rule="evenodd" stroke="none" clip-path="url(#clip_1)" />
      <path d="M357.644 482.37C356.761 482.37 356.03 481.679 355.984 480.789C355.937 479.873 356.648 479.096 357.557 479.05C380.797 477.914 401.421 469.455 418.871 453.91C419.542 453.306 420.598 453.359 421.215 454.05C421.826 454.734 421.766 455.783 421.076 456.394C403.3 472.23 381.395 481.214 357.717 482.37C357.697 482.37 357.67 482.37 357.644 482.37L357.644 482.37Z" id="Shape" fill="#472B29" fill-rule="evenodd" stroke="none" clip-path="url(#clip_1)" />
      <path d="M339.384 481.752C339.324 481.752 339.257 481.752 339.198 481.739C317.936 479.302 296.144 470.816 277.831 457.855C277.087 457.323 276.901 456.288 277.432 455.537C277.964 454.787 278.993 454.614 279.75 455.139C297.611 467.788 318.866 476.055 339.576 478.432C340.492 478.538 341.137 479.362 341.037 480.271C340.937 481.128 340.22 481.752 339.384 481.752L339.384 481.752Z" id="Shape" fill="#472B29" fill-rule="evenodd" stroke="none" clip-path="url(#clip_1)" />
      <path d="M265.507 447.397C265.102 447.397 264.697 447.25 264.378 446.952C255.228 438.466 247.858 429.156 242.473 419.276C242.041 418.473 242.333 417.463 243.137 417.025C243.934 416.594 244.943 416.879 245.394 417.689C250.6 427.251 257.752 436.275 266.636 444.521C267.313 445.146 267.346 446.195 266.729 446.865C266.397 447.217 265.959 447.397 265.507 447.397L265.507 447.397Z" id="Shape" fill="#472B29" fill-rule="evenodd" stroke="none" clip-path="url(#clip_1)" />
      <g id="Group" transform="translate(396.74002 385.12003)" clip-path="url(#clip_1)">
        <path d="M122.84 89.64C122.84 89.64 133.245 89.64 146.08 89.64C158.915 89.64 169.32 79.2351 169.32 66.4C169.32 54.5742 160.456 44.9262 149.035 43.4588C149.221 42.2702 149.4 41.0817 149.4 39.84C149.4 27.0049 138.995 16.6 126.16 16.6C119.308 16.6 113.212 19.6212 108.962 24.3356C106.413 12.3305 95.7688 3.32 83 3.32C68.3323 3.32 56.44 15.2122 56.44 29.88C56.44 31.1483 56.6392 32.3634 56.8119 33.5851C53.9699 31.3009 50.4043 29.88 46.48 29.88C38.3261 29.88 31.5732 35.7697 30.1788 43.5252C28.9902 43.3393 27.8017 43.16 26.56 43.16C13.7249 43.16 3.32 53.5649 3.32 66.4C3.32 79.2351 13.7249 89.64 26.56 89.64C39.3951 89.64 76.36 89.64 76.36 89.64L76.36 92.96L122.84 92.96L122.84 89.64L122.84 89.64Z" id="Path" fill="#FDFCEF" fill-rule="evenodd" stroke="none" />
        <path d="M134.46 59.76C133.544 59.76 132.8 59.0163 132.8 58.1C132.8 49.9793 139.407 43.3725 147.528 43.3725C147.753 43.4322 152.421 43.3658 155.788 44.2755C156.671 44.5146 157.195 45.4242 156.956 46.3074C156.717 47.1971 155.808 47.7217 154.925 47.476C151.976 46.6792 147.621 46.6792 147.534 46.6925C141.24 46.6925 136.12 51.812 136.12 58.1001C136.12 59.0163 135.376 59.76 134.46 59.76L134.46 59.76Z" id="Path" fill="#472B29" fill-rule="evenodd" stroke="none" />
        <path d="M86.32 89.64C86.32 87.8064 87.8064 86.32 89.64 86.32C91.4736 86.32 92.96 87.8064 92.96 89.64C92.96 91.4736 91.4736 92.96 89.64 92.96C87.8064 92.96 86.32 91.4736 86.32 89.64Z" id="Oval" fill="#472B29" fill-rule="evenodd" stroke="none" />
        <path d="M146.08 92.96L122.84 92.96C121.007 92.96 119.52 91.4727 119.52 89.64C119.52 87.8074 121.007 86.32 122.84 86.32L146.08 86.32C157.063 86.32 166 77.3826 166 66.4C166 56.4666 158.53 48.0205 148.617 46.7522C147.727 46.6327 146.923 46.1679 146.386 45.4508C145.848 44.7337 145.622 43.8306 145.761 42.9475C145.914 41.925 146.08 40.9024 146.08 39.84C146.08 28.8574 137.143 19.92 126.16 19.92C120.516 19.92 115.284 22.2772 111.426 26.56C110.596 27.483 109.294 27.8747 108.106 27.5427C106.897 27.2174 105.974 26.2479 105.715 25.0261C103.451 14.3756 93.8963 6.64 83 6.64C70.1848 6.64 59.76 17.0648 59.76 29.88C59.76 30.8295 59.8995 31.7392 60.0323 32.6555C60.2248 34.0034 59.6139 35.5638 58.4254 36.2411C57.2368 36.9184 55.7959 37.0246 54.7336 36.1747C52.3099 34.2292 49.4614 33.2 46.48 33.2C40.0657 33.2 34.5811 37.7883 33.4457 44.1161C33.127 45.889 31.4803 47.0776 29.6675 46.8053C28.645 46.646 27.6224 46.48 26.56 46.48C15.5774 46.48 6.64 55.4175 6.64 66.4C6.64 77.3826 15.5774 86.32 26.56 86.32L76.36 86.32C78.1927 86.32 79.68 87.8074 79.68 89.64C79.68 91.4727 78.1927 92.96 76.36 92.96L26.56 92.96C11.9122 92.96 0 81.0479 0 66.4C0 51.7522 11.9122 39.84 26.56 39.84C26.9518 39.84 27.3303 39.8533 27.7154 39.8798C30.4643 32.0048 37.921 26.56 46.48 26.56C48.7974 26.56 51.055 26.965 53.1931 27.7552C54.2887 12.2641 67.2367 0 83 0C95.1579 0 106.014 7.48327 110.576 18.4193C115.091 15.1126 120.549 13.28 126.16 13.28C140.808 13.28 152.72 25.1922 152.72 39.84C152.72 40.1587 152.713 40.4708 152.693 40.7829C164.267 43.7576 172.64 54.2422 172.64 66.4C172.64 81.0479 160.728 92.96 146.08 92.96L146.08 92.96Z" id="Path" fill="#472B29" fill-rule="evenodd" stroke="none" />
        <path d="M109.56 86.32C108.504 86.32 103.976 86.32 102.92 86.32C101.087 86.32 99.6 87.8074 99.6 89.64C99.6 91.4727 101.087 92.96 102.92 92.96C103.976 92.96 108.504 92.96 109.56 92.96C111.393 92.96 112.88 91.4727 112.88 89.64C112.88 87.8074 111.393 86.32 109.56 86.32L109.56 86.32Z" id="Path" fill="#472B29" fill-rule="evenodd" stroke="none" />
      </g>
    </g>
  </g>
</svg>